<?xml version="1.0" encoding="utf-8"?>
<!-- Generator: Adobe Illustrator 22.0.1, SVG Export Plug-In . SVG Version: 6.00 Build 0)  -->
<svg version="1.1" id="Layer_1" xmlns="http://www.w3.org/2000/svg" xmlns:xlink="http://www.w3.org/1999/xlink" x="0px" y="0px"
	 viewBox="0 0 72 72" style="enable-background:new 0 0 72 72;" xml:space="preserve">
<g>
	<g>
		<path d="M36,72C16.2,72,0.1,56,0,36.2C-0.1,16.1,16.3-0.3,36.5,0C56.2,0.3,72.3,16.5,72,36.6C71.7,56.2,55.8,72,36,72z M36,6.4
			C19.9,6.4,6.6,19.3,6.3,35.5C5.9,52.2,19.4,65.7,35.7,65.9c16.5,0.1,29.9-13.1,30-29.5C65.8,19.6,52.2,6.3,36,6.4z"/>
		<path d="M30.6,38.5c-1.2,0-2.3,0-3.4,0c0-1.4,0-2.8,0-4.2c3,0,5.9,0,8.9,0c0,0.1,0,0.2,0,0.3c0,3.9,0,7.8,0,11.7
			c0,0.3-0.1,0.4-0.3,0.4c-3.3,0.9-6.7,1.1-10.1,0.7c-2.1-0.2-4.1-0.8-5.9-2c-2.2-1.4-3.5-3.5-4-6c-0.6-3-0.5-6,0.8-8.8
			c1.2-2.7,3.3-4.4,6-5.3c2.2-0.8,4.6-1,6.9-0.9c2,0.1,3.9,0.4,5.8,0.9c0.3,0.1,0.4,0.2,0.3,0.5c-0.2,1.4-0.3,2.7-0.5,4.1
			c0,0,0,0.1,0,0.1C35,30.1,35,30,34.9,30c-2.7-1.4-5.5-1.8-8.5-1c-2.7,0.8-4.3,2.7-4.8,5.5c-0.3,1.8-0.2,3.5,0.6,5.2
			c1,2.1,2.6,3.2,4.9,3.6c1.1,0.2,2.2,0.1,3.2-0.1c0.3,0,0.4-0.1,0.4-0.4C30.6,41.4,30.6,40,30.6,38.5z"/>
		<path d="M46.3,47.2c-2,0-3.9,0-5.9,0c0-7.4,0-14.7,0-22.1c4.8,0,9.7,0,14.6,0c0,1.4,0,2.8,0,4.2c-2.9,0-5.7,0-8.6,0
			c0,1.6,0,3.1,0,4.7c2.7,0,5.5,0,8.2,0c0,1.4,0,2.8,0,4.2c-2.7,0-5.5,0-8.2,0C46.3,41.2,46.3,44.2,46.3,47.2z"/>
	</g>
</g>
</svg>
