<?xml version="1.0" encoding="UTF-8" standalone="no"?>
<!-- Created with Inkscape (http://www.inkscape.org/) -->

<svg
   xmlns:dc="http://purl.org/dc/elements/1.1/"
   xmlns:cc="http://creativecommons.org/ns#"
   xmlns:rdf="http://www.w3.org/1999/02/22-rdf-syntax-ns#"
   xmlns:svg="http://www.w3.org/2000/svg"
   xmlns="http://www.w3.org/2000/svg"
   xmlns:sodipodi="http://sodipodi.sourceforge.net/DTD/sodipodi-0.dtd"
   xmlns:inkscape="http://www.inkscape.org/namespaces/inkscape"
   version="1.1"
   id="svg3830"
   xml:space="preserve"
   width="121.72933"
   height="121.72933"
   viewBox="0 0 121.72933 121.72933"
   sodipodi:docname="vegan-symbol-vector2.svg"
   inkscape:version="0.92.2 (5c3e80d, 2017-08-06)"><metadata
     id="metadata3836"><rdf:RDF><cc:Work
         rdf:about=""><dc:format>image/svg+xml</dc:format><dc:type
           rdf:resource="http://purl.org/dc/dcmitype/StillImage" /><dc:title></dc:title></cc:Work></rdf:RDF></metadata><defs
     id="defs3834" /><sodipodi:namedview
     pagecolor="#ffffff"
     bordercolor="#666666"
     borderopacity="1"
     objecttolerance="10"
     gridtolerance="10"
     guidetolerance="10"
     inkscape:pageopacity="0"
     inkscape:pageshadow="2"
     inkscape:window-width="690"
     inkscape:window-height="480"
     id="namedview3832"
     showgrid="false"
     inkscape:zoom="1.9387275"
     inkscape:cx="60.864666"
     inkscape:cy="60.864666"
     inkscape:window-x="0"
     inkscape:window-y="0"
     inkscape:window-maximized="0"
     inkscape:current-layer="g3838" /><g
     id="g3838"
     inkscape:groupmode="layer"
     inkscape:label="vegan-symbol-vector2"
     transform="matrix(1.3333333,0,0,1.3333333,0,3.7098999e-6)"><g
       id="g3840"><path
         d="m 45.641,3.719 c -11.625,0 -21.524,4.086 -29.688,12.25 -8.156,8.156 -12.234,18.054 -12.234,29.687 0,11.625 4.078,21.524 12.234,29.688 8.164,8.164 18.063,12.25 29.688,12.25 11.632,0 21.531,-4.086 29.687,-12.25 8.164,-8.164 12.25,-18.063 12.25,-29.688 0,-11.633 -4.086,-21.531 -12.25,-29.687 C 67.172,7.805 57.273,3.719 45.641,3.719 Z m 0,-3.719 c 12.625,0 23.39,4.453 32.297,13.359 8.906,8.907 13.359,19.672 13.359,32.297 0,12.617 -4.453,23.375 -13.359,32.282 C 69.031,86.844 58.266,91.297 45.641,91.297 33.023,91.297 22.266,86.844 13.359,77.938 4.453,69.031 0,58.273 0,45.656 0,33.031 4.453,22.266 13.359,13.359 22.266,4.453 33.023,0 45.641,0 Z M 40.828,79.047 19.297,17.813 h 8.906 L 45.641,69.406 63.094,17.813 H 72 L 50.469,79.047 Z"
         style="fill:#000000;fill-opacity:1;fill-rule:nonzero;stroke:none"
         id="path3842"
         inkscape:connector-curvature="0" /></g></g></svg>