
            <svg width="3184.382534488963" height="3184.382534488963" xmlns="http://www.w3.org/2000/svg" xmlns:xlink="http://www.w3.org/1999/xlink" version="1.1">
                <rect fill="#2eaef1" width="3184.382534488963" height="3184.382534488963"/>
                <g transform="scale(9.219126724448138) translate(10, 10)">
                    <g id="SvgjsG1694" fill="#ffffff" transform="translate(0,0) scale(3.2541043090820314)" rel="inversefill" name="filled_container" xmlns:name="filledContainer_inversefill"><style xmlns="http://www.w3.org/2000/svg">.st0{fill:#ffffff}</style><circle xmlns="http://www.w3.org/2000/svg" class="st0" cx="50" cy="50" r="50"/></g><g id="SvgjsG1695" rel="mainfill" name="main_text" xmlns:name="mainText_mainfill" fill="#2eaef1" transform="translate(72.97821807861328,175.1910737991333)"><path fill="#2eaef1" d="M13.596 19.799999999999997 c7.524 0 10.758 3.498 10.758 10.626 l0 1.65 c0 4.752 -1.452 7.722 -4.686 9.24 l0 0.132 c3.894 1.518 5.412 4.95 5.412 9.834 l0 3.762 c0 7.128 -3.762 10.956 -11.022 10.956 l-11.418 0 l0 -46.2 l10.956 0 z M13.134 45.21 l-3.234 0 l0 14.19 l4.158 0 c2.442 0 3.762 -1.122 3.762 -4.554 l0 -4.026 c0 -4.29 -1.386 -5.61 -4.686 -5.61 z M13.398 26.4 l-3.498 0 l0 12.21 l2.838 0 c2.706 0 4.356 -1.188 4.356 -4.884 l0 -2.574 c0 -3.3 -1.122 -4.752 -3.696 -4.752 z M29.106 19.799999999999997 l7.26 0 l0 35.64 c0 3.3 1.452 4.488 3.762 4.488 s3.762 -1.188 3.762 -4.488 l0 -35.64 l6.864 0 l0 35.178 c0 7.392 -3.696 11.616 -10.824 11.616 s-10.824 -4.224 -10.824 -11.616 l0 -35.178 z M69.894 48.774 l6.864 0 l0 6.138 c0 7.392 -3.696 11.616 -10.824 11.616 s-10.824 -4.224 -10.824 -11.616 l0 -24.024 c0 -7.392 3.696 -11.616 10.824 -11.616 s10.824 4.224 10.824 11.616 l0 4.488 l-6.864 0 l0 -4.95 c0 -3.3 -1.452 -4.554 -3.762 -4.554 s-3.762 1.254 -3.762 4.554 l0 24.948 c0 3.3 1.452 4.488 3.762 4.488 s3.762 -1.188 3.762 -4.488 l0 -6.6 z M97.74600000000001 66 l-7.062 -18.414 l-2.244 4.224 l0 14.19 l-7.26 0 l0 -46.2 l7.26 0 l0 19.998 l0.132 0 l9.372 -19.998 l7.26 0 l-10.098 20.592 l10.098 25.608 l-7.458 0 z M115.76400000000001 26.4 l0 12.87 l9.966 0 l0 6.6 l-9.966 0 l0 13.53 l12.54 0 l0 6.6 l-19.8 0 l0 -46.2 l19.8 0 l0 6.6 l-12.54 0 z M130.68 26.4 l0 -6.6 l22.44 0 l0 6.6 l-7.59 0 l0 39.6 l-7.26 0 l0 -39.6 l-7.59 0 z M155.36400000000003 30.887999999999998 c0 -7.392 3.63 -11.616 10.692 -11.616 s10.692 4.224 10.692 11.616 l0 1.452 l-6.864 0 l0 -1.914 c0 -3.3 -1.32 -4.554 -3.63 -4.554 s-3.63 1.254 -3.63 4.554 c0 3.366 1.452 5.874 6.204 10.032 c6.072 5.346 7.986 9.174 7.986 14.454 c0 7.392 -3.696 11.616 -10.824 11.616 s-10.824 -4.224 -10.824 -11.616 l0 -2.838 l6.864 0 l0 3.3 c0 3.3 1.452 4.488 3.762 4.488 s3.762 -1.188 3.762 -4.488 c0 -3.366 -1.452 -5.874 -6.204 -10.032 c-6.072 -5.346 -7.986 -9.174 -7.986 -14.454 z" style="fill: #2eaef1;"/></g><g id="SvgjsG1696" rel="mainfill" name="slogan_text" xmlns:name="sloganText_mainfill" fill="#2eaef1" transform="translate(79.59001278877258,242.99608173370362)"><path fill="#2eaef1" d="M4.3164 13.867375 l2.3438 0 l0 1.4746 l-2.3438 0 l0 6.9629 l1.582 0 l0 1.6797 l-4.9219 0 l0 -1.6797 l1.5234 0 l0 -6.9629 l-1.6699 0 l0 -1.4746 l1.6699 0 l0 -1.582 q0.01953125 -0.87890625 0.25390625 -1.533203125 t0.66406 -1.0938 t1.0352 -0.6543 t1.3477 -0.21484 q0.517578125 0 0.927734375 0.048828125 t0.73242 0.13184 t0.57129 0.18066 t0.44434 0.19531 l-0.55664 1.2988 q-0.3125 -0.166015625 -0.8154296875 -0.283203125 t-1.0498 -0.11719 q-0.810546875 0 -1.274414063 0.5029296875 t-0.46387 1.4795 l0 1.6406 z M14.199190625 23.046875 q-0.576171875 0.537109375 -1.274414063 0.87890625 t-1.5869 0.3418 q-0.7421875 0 -1.362304688 -0.234375 t-1.0693 -0.63965 t-0.69824 -0.94238 t-0.24902 -1.1426 q0 -0.64453125 0.1904296875 -1.142578125 t0.50781 -0.86426 t0.74219 -0.61523 t0.88867 -0.40039 t0.94727 -0.21484 t0.92285 -0.063477 q0.703125 0 1.181640625 0.0439453125 t0.86914 0.12207 l0.0097656 -0.83008 q0 -0.537109375 -0.15625 -0.9326171875 t-0.43945 -0.6543 t-0.67871 -0.38574 t-0.88379 -0.12695 q-0.458984375 0 -0.87890625 0.0634765625 t-0.78613 0.16602 t-0.67383 0.23438 t-0.52246 0.27832 l-0.5957 -1.2598 q0.361328125 -0.234375 0.791015625 -0.4345703125 t0.90332 -0.3418 t0.9668 -0.22461 t0.97168 -0.083008 q0.87890625 0 1.58203125 0.2099609375 t1.1914 0.64941 t0.75195 1.1182 t0.26367 1.626 l-0.0097656 5.0586 l1.123 0 l0 1.6797 l-2.9395 0 l0 -0.9375 z M11.738290625000001 22.744175 q0.361328125 0 0.72265625 -0.087890625 t0.68359 -0.23926 t0.5957 -0.35156 t0.45898 -0.41504 l0.0097656 -2.2852 l-2.1094 0 q-0.52734375 0 -0.9619140625 0.1171875 t-0.75195 0.3418 t-0.49316 0.55664 t-0.17578 0.76172 q0 0.400390625 0.146484375 0.6982421875 t0.41504 0.49805 t0.63965 0.30273 t0.82031 0.10254 z M19.189450625 13.867375 l3.2227 0 l0 1.1816 l0.019531 0 q0.33203125 -0.283203125 0.6982421875 -0.5322265625 t0.7666 -0.43457 t0.83496 -0.29297 t0.90332 -0.10742 q1.09375 0 1.884765625 0.4052734375 t1.2207 1.2646 q0.37109375 -0.33203125 0.78125 -0.6396484375 t0.85449 -0.53223 t0.93262 -0.36133 t1.0156 -0.13672 q0.8203125 0 1.474609375 0.224609375 t1.1133 0.68359 t0.69824 1.1768 t0.23926 1.6943 l0 4.8438 l1.4063 0 l0 1.6797 l-4.7266 0 l0 -1.6797 l1.4258 0 l0 -4.6191 q0 -1.162109375 -0.5859375 -1.762695313 t-1.6895 -0.60059 q-0.654296875 0 -1.337890625 0.3125 t-1.1719 0.79102 l0 5.8789 l1.3965 0 l0 1.6797 l-4.7168 0 l0 -1.6797 l1.4258 0 l0 -4.6191 q0 -1.162109375 -0.5908203125 -1.762695313 t-1.6943 -0.60059 q-0.634765625 0 -1.279296875 0.302734375 t-1.2207 0.75195 l0 5.9277 l1.4258 0 l0 1.6797 l-4.7266 0 l0 -1.6797 l1.4063 0 l0 -6.7578 l-1.4063 0 l0 -1.6797 z M39.130861875 13.867375 l3.3008 0 l0 8.4375 l1.5234 0 l0 1.6797 l-4.8047 0 l0 -1.6797 l1.4453 0 l0 -6.7578 l-1.4648 0 l0 -1.6797 z M40.253921875 10.283375 q0 -0.25390625 0.1025390625 -0.4833984375 t0.27344 -0.40039 t0.40527 -0.27344 t0.49805 -0.10254 q0.25390625 0 0.4833984375 0.1025390625 t0.40039 0.27344 t0.27344 0.40039 t0.10254 0.4834 q0 0.263671875 -0.1025390625 0.498046875 t-0.27344 0.41504 t-0.40039 0.2832 t-0.4834 0.10254 q-0.263671875 0 -0.498046875 -0.1025390625 t-0.40527 -0.2832 t-0.27344 -0.41504 t-0.10254 -0.49805 z M45.5468775 8.789375 l3.2813 0 l0 13.516 l1.5234 0 l0 1.6797 l-4.8047 0 l0 -1.6797 l1.4648 0 l0 -11.836 l-1.4648 0 l0 -1.6797 z M51.45507375 13.867375 l3.8379 0 l0 1.6797 l-1.2012 0 l2.373 6.4551 l2.4805 -6.4551 l-1.1914 0 l0 -1.6797 l3.8379 0 l0 1.6797 l-1.0449 0 l-4.502 11.357 l1.3867 0 l0 1.6797 l-4.082 0 l0 -1.6797 l1.2305 0 l1.0742 -2.7832 l-3.3789 -8.5742 l-0.82031 0 l0 -1.6797 z M62.63671875 23.984375 z M67.56835875 8.789375 l3.2813 0 l0 5.918 q0.64453125 -0.498046875 1.40625 -0.791015625 t1.5723 -0.29297 q0.99609375 0 1.826171875 0.37109375 t1.4307 1.0449 t0.93262 1.6162 t0.33203 2.085 q0 1.220703125 -0.37109375 2.211914063 t-1.0303 1.7041 t-1.5674 1.0986 t-1.9922 0.38574 q-0.751953125 0 -1.411132813 -0.2197265625 t-1.1279 -0.57129 l0 0.63477 l-1.8164 0 l0 -13.516 l-1.4648 0 l0 -1.6797 z M73.34961875 15.224575 q-0.712890625 0 -1.3671875 0.29296875 t-1.1328 0.79102 l0 5.4395 q0.3125 0.322265625 0.91796875 0.5712890625 t1.5234 0.24902 q0.625 0 1.201171875 -0.234375 t1.0156 -0.70801 t0.70313 -1.1768 t0.26367 -1.6406 q0 -0.859375 -0.2490234375 -1.5234375 t-0.67383 -1.123 t-0.99121 -0.69824 t-1.2109 -0.23926 z M86.318346875 13.867375 l3.2617 0 l0 8.4375 l1.123 0 l0 1.6797 l-2.9492 0 l0 -0.9375 q-0.68359375 0.52734375 -1.489257813 0.8203125 t-1.7236 0.29297 q-0.76171875 0 -1.381835938 -0.2197265625 t-1.0547 -0.68359 t-0.66895 -1.1768 t-0.23438 -1.6992 l0 -4.834 l-1.3672 0 l0 -1.6797 l3.2617 0 l0 6.2988 q0 1.162109375 0.537109375 1.7578125 t1.543 0.5957 q0.595703125 0 1.254882813 -0.21484375 t1.2451 -0.5957 l0 -6.1621 l-1.3574 0 l0 -1.6797 z M99.375040625 8.789375 l3.1934 0 l0 13.516 l1.4844 0 l0 1.6797 l-3.3008 0 l0 -0.83008 q-0.48828125 0.498046875 -1.1328125 0.7763671875 t-1.4648 0.27832 q-1.025390625 0 -1.909179688 -0.3564453125 t-1.5332 -1.0449 t-1.0156 -1.6895 t-0.36621 -2.29 q0 -1.171875 0.3515625 -2.133789063 t0.99609 -1.6406 t1.5527 -1.0547 t2.0215 -0.37598 q0.732421875 0 1.337890625 0.1611328125 t1.1621 0.56152 l0 -3.877 l-1.377 0 l0 -1.6797 z M98.388640625 22.626975 q0.810546875 0 1.357421875 -0.2392578125 t1.0059 -0.71777 l0 -5.6641 q-0.48828125 -0.41015625 -1.123046875 -0.595703125 t-1.2988 -0.18555 q-0.64453125 0 -1.2109375 0.2392578125 t-0.99121 0.69824 t-0.66895 1.123 t-0.24414 1.5234 q0 0.9375 0.234375 1.650390625 t0.6543 1.1963 t1.0059 0.72754 t1.2793 0.24414 z M113.193353125 23.095705 q-0.498046875 0.52734375 -1.157226563 0.8203125 t-1.499 0.29297 q-1.025390625 0 -1.909179688 -0.3564453125 t-1.5332 -1.0449 t-1.0156 -1.6895 t-0.36621 -2.29 q0 -1.171875 0.3515625 -2.133789063 t0.99609 -1.6406 t1.5527 -1.0547 t2.0215 -0.37598 q0.76171875 0 1.372070313 0.1708984375 t1.1865 0.59082 l0 -0.51758 l1.8164 0 l0 9.7168 q0 2.40234375 -1.137695313 3.6328125 t-3.54 1.2305 q-0.52734375 0 -1.103515625 -0.078125 t-1.1377 -0.24902 t-1.0938 -0.43457 t-0.98145 -0.64453 l0.97656 -1.4746 q0.29296875 0.25390625 0.6689453125 0.46875 t0.80566 0.36621 t0.88867 0.23926 t0.91797 0.087891 q0.751953125 0 1.303710938 -0.15625 t0.9082 -0.55176 t0.53223 -1.0693 t0.17578 -1.709 l0 -0.14648 z M110.771453125 22.626975 q0.44921875 0 0.8203125 -0.087890625 t0.67383 -0.22949 t0.53223 -0.32715 t0.39551 -0.39063 l0 -5.5371 q-0.498046875 -0.439453125 -1.147460938 -0.634765625 t-1.333 -0.19531 q-0.64453125 0 -1.2109375 0.2392578125 t-0.99121 0.69824 t-0.66895 1.123 t-0.24414 1.5234 q0 0.9375 0.234375 1.650390625 t0.6543 1.1963 t1.0059 0.72754 t1.2793 0.24414 z M119.228503125 19.160175 q0 0.4296875 0.0634765625 0.7861328125 t0.18066 0.67871 q0.361328125 0.9765625 1.157226563 1.469726563 t1.8018 0.49316 q0.791015625 0 1.538085938 -0.2197265625 t1.5674 -0.68848 l0.73242 1.2402 q-0.99609375 0.68359375 -2.001953125 1.015625 t-2.0898 0.33203 q-1.025390625 0 -1.899414063 -0.341796875 t-1.5039 -1.0156 t-0.98633 -1.6797 t-0.35645 -2.3438 q0 -1.083984375 0.302734375 -2.045898438 t0.90332 -1.6797 t1.4893 -1.1377 t2.0703 -0.41992 q1.142578125 0 1.909179688 0.3466796875 t1.25 0.91797 t0.73242 1.3037 t0.34668 1.4941 q0.048828125 0.37109375 0.0634765625 0.751953125 t0.014648 0.74219 l-7.2852 0 z M122.070303125 15.126975 q-0.634765625 0 -1.108398438 0.1806640625 t-0.80566 0.51758 t-0.53223 0.8252 t-0.29785 1.0938 l5.2441 0 q-0.0390625 -0.56640625 -0.1806640625 -1.044921875 t-0.43457 -0.83008 t-0.75195 -0.54688 t-1.1328 -0.19531 z M131.9141125 13.867375 l2.373 0 l0 1.4746 l-2.3926 0 l-0.029297 5.8398 q0 0.595703125 0.13671875 0.966796875 t0.43945 0.5127 t0.68359 0.1416 q0.41015625 0 0.72265625 -0.0732421875 t0.68359 -0.24902 l0.41992 1.2207 q-0.46875 0.244140625 -0.986328125 0.3857421875 t-1.2207 0.1416 q-0.6640625 0 -1.157226563 -0.1611328125 t-0.83008 -0.54199 t-0.50293 -1.0205 t-0.16602 -1.5967 l0.029297 -5.5664 l-1.6113 0 l0 -1.4746 l1.6309 0 l0 -2.4219 l1.7773 -0.83984 l0 3.2617 z M136.34765875 13.867375 l3.3008 0 l0 8.4375 l1.5234 0 l0 1.6797 l-4.8047 0 l0 -1.6797 l1.4453 0 l0 -6.7578 l-1.4648 0 l0 -1.6797 z M137.47071875 10.283375 q0 -0.25390625 0.1025390625 -0.4833984375 t0.27344 -0.40039 t0.40527 -0.27344 t0.49805 -0.10254 q0.25390625 0 0.4833984375 0.1025390625 t0.40039 0.27344 t0.27344 0.40039 t0.10254 0.4834 q0 0.263671875 -0.1025390625 0.498046875 t-0.27344 0.41504 t-0.40039 0.2832 t-0.4834 0.10254 q-0.263671875 0 -0.498046875 -0.1025390625 t-0.40527 -0.2832 t-0.27344 -0.41504 t-0.10254 -0.49805 z M149.501934375 22.304675 l1.4258 0 l0 -4.6191 q0 -1.162109375 -0.5908203125 -1.762695313 t-1.6943 -0.60059 q-0.634765625 0 -1.279296875 0.302734375 t-1.2207 0.75195 l0 5.9277 l1.4258 0 l0 1.6797 l-4.7266 0 l0 -1.6797 l1.4063 0 l0 -6.7578 l-1.4063 0 l0 -1.6797 l3.2227 0 l0 1.1914 l0.019531 0 q0.322265625 -0.283203125 0.6884765625 -0.537109375 t0.7666 -0.43945 t0.83496 -0.29297 t0.91309 -0.10742 q0.810546875 0 1.46484375 0.224609375 t1.1133 0.68359 t0.70801 1.1768 t0.24902 1.6943 l0 4.8438 l1.4063 0 l0 1.6797 l-4.7266 0 l0 -1.6797 z M163.583978125 23.095705 q-0.498046875 0.52734375 -1.157226563 0.8203125 t-1.499 0.29297 q-1.025390625 0 -1.909179688 -0.3564453125 t-1.5332 -1.0449 t-1.0156 -1.6895 t-0.36621 -2.29 q0 -1.171875 0.3515625 -2.133789063 t0.99609 -1.6406 t1.5527 -1.0547 t2.0215 -0.37598 q0.76171875 0 1.372070313 0.1708984375 t1.1865 0.59082 l0 -0.51758 l1.8164 0 l0 9.7168 q0 2.40234375 -1.137695313 3.6328125 t-3.54 1.2305 q-0.52734375 0 -1.103515625 -0.078125 t-1.1377 -0.24902 t-1.0938 -0.43457 t-0.98145 -0.64453 l0.97656 -1.4746 q0.29296875 0.25390625 0.6689453125 0.46875 t0.80566 0.36621 t0.88867 0.23926 t0.91797 0.087891 q0.751953125 0 1.303710938 -0.15625 t0.9082 -0.55176 t0.53223 -1.0693 t0.17578 -1.709 l0 -0.14648 z M161.162078125 22.626975 q0.44921875 0 0.8203125 -0.087890625 t0.67383 -0.22949 t0.53223 -0.32715 t0.39551 -0.39063 l0 -5.5371 q-0.498046875 -0.439453125 -1.147460938 -0.634765625 t-1.333 -0.19531 q-0.64453125 0 -1.2109375 0.2392578125 t-0.99121 0.69824 t-0.66895 1.123 t-0.24414 1.5234 q0 0.9375 0.234375 1.650390625 t0.6543 1.1963 t1.0059 0.72754 t1.2793 0.24414 z" style="fill: #2eaef1;"/></g><defs id="SvgjsDefs1693"/><g id="SvgjsG1697" fill="#2eaef1" rel="mainfill" name="symbol" xmlns:name="symbol_mainfill" transform="translate(98.08866374065596,52.07654367872882) scale(1.4715009655019027)"><g xmlns="http://www.w3.org/2000/svg"><path d="M77.564,7.688C70.838,3.737,63.246,2.209,55.59,2.899c-0.414-0.053-0.811-0.008-1.18,0.121   c-0.09,0.008-0.18,0.025-0.271,0.037c-2.656-1.785-6.406-1.865-9.549-1.162c-6.139,1.373-10.707,4.887-15.346,8.932   C21.271,17.78,13.947,25.87,8.559,35.01c-2.221,3.768-4.535,7.775-3.652,12.302c0.912,4.674,4.313,7.393,8.541,7.932   c3.613,3.863,8.457,6.951,12.695,9.908c5.256,3.668,10.518,7.322,15.85,10.885c4.486,2.996,9.156,7.012,14.754,7.461   c5.248,0.422,10.102-2.432,14.195-5.396c7.064-5.123,14.047-13.006,14.068-22.248c0.012-5.248-1.988-10.121-4.256-14.755   c-0.018-0.035-0.035-0.07-0.053-0.102c2.914-4.094,4.893-8.914,5.574-14.203C87.334,18.588,84.811,11.942,77.564,7.688z    M10.264,47.625c-1.404-3.462,0.82-6.785,2.508-9.681c3.945-6.781,9.045-12.928,14.617-18.439   C30.932,16,34.811,12.043,39.107,9.493c2.982-1.771,11.207-5.6,13.406-0.949c0.107,0.229,0.24,0.412,0.383,0.576   c3.92,8.418-2.988,18.391-8.492,24.309c-6.264,6.732-13.27,12.587-22.033,15.785C18.648,50.57,12.201,52.414,10.264,47.625z    M80.41,48.895c4.971,10.412-1.768,18.561-10.111,24.307c-3.76,2.588-8.57,6.041-13.396,5.217c-4.754-0.813-9.287-5.172-13.16-7.83   c-5.111-3.504-10.291-6.9-15.473-10.305c-2.779-1.822-5.717-3.836-8.779-5.514c9.615-2.109,18.596-8.863,25.057-15.855   c4.139-4.479,8.373-9.076,10.592-14.855c1.15-2.992,1.957-6.395,1.779-9.641c0.014,0.018,0.025,0.035,0.041,0.057   c2.295,3.213,5.084,6.004,7.383,9.193c2.895,4.023,5.311,8.389,8.057,12.514c0.678,1.02,1.379,2.033,2.082,3.055   c-5.338,6.186-13.512,9.615-22.221,8.835c-4.145-0.371-4.197,6.258,0,6.512c9.902,0.596,19.229-3.379,25.648-10.185   C78.816,45.862,79.672,47.35,80.41,48.895z M72.248,24.635c-2.658-4.652-6.119-8.469-9.207-12.791   c-1.221-1.709-2.361-4.068-3.768-5.99c4.986,1.1,9.797,2.986,14.189,5.594c2.623,1.557,5.23,3.363,6.371,6.307   c1.182,3.051,0.99,6.629,0.35,9.785c-0.523,2.584-1.412,4.984-2.592,7.174C75.885,31.311,74.133,27.936,72.248,24.635z" fill="#2eaef1" style="fill: #2eaef1;"/><path d="M12.918,89.346c5.898-0.541,10.648-3.75,9.65-10.254c-0.744-4.85-3.398-9.631-7.139-12.93   c0.143-0.234,0.285-0.465,0.42-0.703c1.186-2.135-1.314-5.084-3.549-3.545C7.285,65.367,3.467,72.951,2.148,78.787   C0.49,86.105,6.125,89.967,12.918,89.346z M9.619,75.102c1.117-2.375,2.695-4.391,4.178-6.473c1.289,2.043,2.412,4.176,3.203,6.504   c0.602,1.77,1.322,3.99,0.9,5.865c-0.547,2.451-2.799,2.852-4.982,3.027c-1.938,0.152-5.295,0.266-5.498-2.377   C7.27,79.693,8.82,76.791,9.619,75.102z" fill="#2eaef1" style="fill: #2eaef1;"/></g></g>
                </g>
            </svg>
        