<?xml version="1.0" encoding="UTF-8" standalone="no"?>
<!DOCTYPE svg PUBLIC "-//W3C//DTD SVG 1.1//EN"
"http://www.w3.org/Graphics/SVG/1.1/DTD/svg11.dtd">


<!-- Page 1 -->
<svg x="0" y="0" width="909" height="1286" viewBox="100 500 709 600" version="1.1" xmlns="http://www.w3.org/2000/svg" xmlns:xlink="http://www.w3.org/1999/xlink" xml:space="preserve"
>
<defs>

<style type="text/css"><![CDATA[

.g1_1{
fill: #231F20;
}


]]></style>

</defs>
<path d="M0,0
L0,1286
L909,1286
L909,0 Z " 
fill="#FFFFFF" stroke="none" />
<path fill-rule="evenodd" d="M385.1,375.8C188.3,460.8,161,632,210.9,756.7C281,931.8,475.6,972.9,607.5,898.1c84.7,-48,162.2,-134.7,140.4,-313C798.4,792.2,665.7,971.3,463.4,982.7C86.2,968.7,50.8,463.3,385.1,375.8Z" class="g1_1" />
<path fill-rule="evenodd" d="M415.5,346.4C541.3,241.1,666.2,374,721.1,486.7C597.9,535,459.2,517.8,412.9,376.6c80,-3,156.2,14.5,228.3,53.4C583.4,371.7,505.2,348.8,415.5,346.4Z" class="g1_1" />
<path d="M336.1,815.2c-14,0.3,-25.9,-3.7,-35.6,-11.3c-9.9,-7.5,-14.8,-16.6,-14.8,-27.2l0,-88c0,-10.7,5,-19.8,14.8,-27.3c9.9,-7.5,21.8,-11.3,35.6,-11.3c14.1,0,25.9,3.8,35.7,11.4c9.8,7.5,14.4,16.6,14.6,27.3l0.2,14.4l-32.9,0l-0.2,-14.9c-0.1,-3.9,-1.8,-7.2,-5.4,-10c-3.6,-2.7,-7.9,-4.1,-12.9,-4.1c-5.1,0,-9.4,1.4,-12.9,4.1c-3.5,2.8,-5.3,6.1,-5.3,10l0,88.2c0,3.9,1.8,7.1,5.3,9.9c3.5,2.6,7.8,4,12.9,4c5,0,9.3,-1.4,12.9,-4c3.6,-2.7,5.3,-6,5.4,-9.8l0.7,-23l-17.8,0l0,-24.5l50.7,0l-0.7,84.2L370.6,813l-5.8,-12.9c-7.9,8.4,-14.2,14.9,-28.7,15.1Z" class="g1_1" />
<path d="M445.4,813.4l-31.3,0l0,-161.4l45.1,0l29.3,116.2L516.7,652l43.2,0l0,161.4l-31.4,0l0,-101.4L501.2,813.4l-25.3,0L445.4,712.3Z" class="g1_1" />
<path d="M367.6,531.3l23.6,61.6l0,-61.6l17.7,0l0,91.8l-19.1,0L365.4,564.3l0,58.8l-17.8,0l0,-91.8Z" class="g1_1" />
<path d="M514.4,531.3L538,592.9l0,-61.6l17.7,0l0,91.8l-19.1,0L512.1,564.3l0,58.8l-17.7,0l0,-91.8Z" class="g1_1" />
<path d="M451.9,530.2c7.8,0,14.5,2.2,19.9,6.5c5.5,4.3,8.3,9.4,8.3,15.5l0,50c0,6.1,-2.8,11.3,-8.3,15.5c-5.5,4.3,-12.1,6.4,-19.9,6.4c-7.8,0,-14.5,-2.1,-19.9,-6.4c-5.5,-4.3,-8.2,-9.4,-8.2,-15.5l0,-50c0,-6.1,2.8,-11.3,8.3,-15.6c5.5,-4.2,12.1,-6.4,19.8,-6.4Zm9.6,21.7c0,-2.2,-0.9,-4,-2.9,-5.6c-2,-1.5,-4.4,-2.3,-7.2,-2.3c-2.8,0,-5.2,0.8,-7.2,2.3c-2,1.6,-3,3.4,-3,5.6l0,50.1c0,2.2,1,4.1,3,5.6c2,1.6,4.4,2.3,7.2,2.3c2.8,0,5.2,-0.7,7.2,-2.3c2,-1.5,2.9,-3.4,2.9,-5.6Z" class="g1_1" />
<path d="M637.8,649.3c13.8,0,25.6,3.8,35.3,11.4c9.7,7.7,14.5,16.8,14.5,27.6l0,88.8c0,10.8,-4.9,20,-14.6,27.6c-9.7,7.6,-21.5,11.4,-35.2,11.4c-13.8,0,-25.6,-3.8,-35.2,-11.5C592.9,797,588.1,787.8,588.1,777.1l0,-88.8c0,-10.9,4.9,-20.1,14.7,-27.6c9.7,-7.6,21.4,-11.4,35,-11.4Zm17,38.5c0,-3.9,-1.7,-7.2,-5.2,-9.9c-3.5,-2.7,-7.7,-4.1,-12.7,-4.1c-5,0,-9.2,1.4,-12.8,4.1c-3.5,2.7,-5.3,6,-5.3,9.9l0,89c0,3.9,1.8,7.2,5.3,9.9c3.6,2.8,7.8,4.1,12.8,4.1c5,0,9.2,-1.3,12.7,-4.1c3.5,-2.7,5.2,-6,5.2,-9.9Z" class="g1_1" />

</svg>
